<svg width="51" height="49" viewBox="0 0 51 49" fill="none" xmlns="http://www.w3.org/2000/svg">
<path d="M37.7156 11.1038L24.8299 23.5288C24.4109 23.9329 24.4109 24.64 24.8299 25.0441C25.249 25.4481 25.9823 25.4481 26.4013 25.0441L39.2871 12.6191L43.1633 13.1241L50.2871 6.25501L45.049 5.5479L44.3156 0.49707L37.0871 7.46721L37.7156 11.1038Z" fill="white"/>
<path d="M44 15.1445C45.5715 17.9729 46.5143 21.2055 46.5143 24.741C46.5143 36.0549 36.981 45.2474 25.2476 45.2474C13.4095 45.2474 3.87619 36.0549 3.87619 24.741C3.87619 13.4272 13.4095 4.23468 25.1429 4.23468C28.7048 4.23468 32.0572 5.04281 35.0953 6.55806L37.9239 3.83061C34.1524 1.70927 29.7524 0.49707 25.1429 0.49707C11.3143 0.49707 0 11.4069 0 24.741C0 38.0752 11.3143 48.985 25.1429 48.985C38.9715 48.985 50.2858 38.0752 50.2858 24.741C50.2858 20.2963 49.0286 16.0536 46.8286 12.417L44 15.1445Z" fill="white"/>
<path d="M34.992 10.9021C32.1635 8.98282 28.8111 7.97266 25.1444 7.97266C15.5063 7.97266 7.75391 15.4479 7.75391 24.7414C7.75391 34.0349 15.5063 41.5101 25.1444 41.5101C34.7825 41.5101 42.5349 34.0349 42.5349 24.7414C42.5349 21.2058 41.3825 17.9733 39.4968 15.2458L36.6682 17.9733C37.9254 19.9936 38.6587 22.317 38.6587 24.7414C38.6587 31.9136 32.5825 37.7725 25.1444 37.7725C17.7063 37.7725 11.6301 31.9136 11.6301 24.7414C11.6301 17.5692 17.7063 11.7103 25.1444 11.7103C27.7635 11.7103 30.173 12.4174 32.1635 13.6296L34.992 10.9021Z" fill="white"/>
<path d="M25.142 19.1848C25.5611 19.1848 25.9801 19.1848 26.2944 19.2858L29.3325 16.3564C28.0753 15.7503 26.6087 15.4473 25.142 15.4473C19.7991 15.4473 15.5039 19.5889 15.5039 24.7407C15.5039 29.8924 19.7991 34.034 25.142 34.034C30.4849 34.034 34.7801 29.8924 34.7801 24.7407C34.7801 23.3264 34.4658 21.9122 33.8373 20.7L30.7992 23.6295C30.9039 24.0335 30.9039 24.3366 30.9039 24.7407C30.9039 27.8721 28.2849 30.2965 25.142 30.2965C21.8944 30.2965 19.3801 27.7711 19.3801 24.7407C19.3801 21.6092 21.8944 19.1848 25.142 19.1848Z" fill="white"/>
</svg>
